<svg width="186" height="250" viewBox="0 0 186 250" fill="none" xmlns="http://www.w3.org/2000/svg">
<circle cx="16" cy="16" r="16" transform="rotate(90 16 16)" fill="#29627C"/>
<path d="M10.1667 16.8333L13.5 20.1667L21.8333 11.8333" stroke="white" stroke-width="2" stroke-linecap="round" stroke-linejoin="round"/>
<rect x="17" y="32" width="37" height="2" transform="rotate(90 17 32)" fill="#29627C"/>
<circle cx="16" cy="85" r="15" transform="rotate(90 16 85)" stroke="#29627C" stroke-width="2"/>
<circle cx="16" cy="85" r="5" transform="rotate(90 16 85)" fill="#29627C"/>
<circle cx="16" cy="85" r="16" transform="rotate(90 16 85)" fill="#29627C"/>
<path d="M10.1667 85.8333L13.5 89.1667L21.8333 80.8333" stroke="white" stroke-width="2" stroke-linecap="round" stroke-linejoin="round"/>
<rect x="17" y="101" width="37" height="2" transform="rotate(90 17 101)" fill="#29627C"/>
<circle cx="16" cy="154" r="15" transform="rotate(90 16 154)" stroke="#29627C" stroke-width="2"/>
<circle cx="16" cy="154" r="5" transform="rotate(90 16 154)" fill="#29627C"/>
<rect x="17" y="170" width="37" height="2" transform="rotate(90 17 170)" fill="#29627C" fill-opacity="0.4"/>
<circle cx="16" cy="223" r="15" transform="rotate(90 16 223)" stroke="#29627C" stroke-opacity="0.4" stroke-width="2"/>
<circle cx="16" cy="223" r="5" transform="rotate(90 16 223)" fill="#29627C" fill-opacity="0.4"/>
<path d="M45.4688 19.7344V21H40.9336V19.7344H45.4688ZM41.4258 12.4688V21H39.8145V12.4688H41.4258ZM44.877 15.9902V17.2266H40.9336V15.9902H44.877ZM45.4512 12.4688V13.7402H40.9336V12.4688H45.4512ZM48.6719 19.8281L50.1484 14.6602H51.7656L49.5918 21H48.6074L48.6719 19.8281ZM47.5938 14.6602L49.0879 19.8398L49.1406 21H48.1504L45.9707 14.6602H47.5938ZM55.5957 21.1172C55.1152 21.1172 54.6836 21.0391 54.3008 20.8828C53.918 20.7266 53.5918 20.5098 53.3223 20.2324C53.0566 19.9512 52.8516 19.625 52.707 19.2539C52.5664 18.8789 52.4961 18.4766 52.4961 18.0469V17.8125C52.4961 17.3242 52.5664 16.8809 52.707 16.4824C52.8477 16.0801 53.0469 15.7344 53.3047 15.4453C53.5625 15.1562 53.8711 14.9336 54.2305 14.7773C54.5898 14.6211 54.9863 14.543 55.4199 14.543C55.8691 14.543 56.2656 14.6191 56.6094 14.7715C56.9531 14.9199 57.2402 15.1309 57.4707 15.4043C57.7012 15.6777 57.875 16.0059 57.9922 16.3887C58.1094 16.7676 58.168 17.1875 58.168 17.6484V18.2988H53.1992V17.2324H56.6445V17.1152C56.6367 16.8691 56.5898 16.6445 56.5039 16.4414C56.418 16.2344 56.2852 16.0703 56.1055 15.9492C55.9258 15.8242 55.6934 15.7617 55.4082 15.7617C55.1777 15.7617 54.9766 15.8125 54.8047 15.9141C54.6367 16.0117 54.4961 16.1523 54.3828 16.3359C54.2734 16.5156 54.1914 16.7305 54.1367 16.9805C54.082 17.2305 54.0547 17.5078 54.0547 17.8125V18.0469C54.0547 18.3125 54.0898 18.5586 54.1602 18.7852C54.2344 19.0117 54.3418 19.209 54.4824 19.377C54.627 19.541 54.7988 19.6699 54.998 19.7637C55.2012 19.8535 55.4316 19.8984 55.6895 19.8984C56.0137 19.8984 56.3066 19.8359 56.5684 19.7109C56.834 19.582 57.0645 19.3926 57.2598 19.1426L58.0391 19.9512C57.9062 20.1465 57.7266 20.334 57.5 20.5137C57.2773 20.6934 57.0078 20.8398 56.6914 20.9531C56.375 21.0625 56.0098 21.1172 55.5957 21.1172ZM60.9727 16.0137V21H59.4258V14.6602H60.8789L60.9727 16.0137ZM60.7266 17.6016H60.2695C60.2734 17.1406 60.3359 16.7227 60.457 16.3477C60.5781 15.9727 60.748 15.6504 60.9668 15.3809C61.1895 15.1113 61.4531 14.9043 61.7578 14.7598C62.0625 14.6152 62.4023 14.543 62.7773 14.543C63.082 14.543 63.3574 14.5859 63.6035 14.6719C63.8496 14.7578 64.0605 14.8945 64.2363 15.082C64.416 15.2695 64.5527 15.5156 64.6465 15.8203C64.7441 16.1211 64.793 16.4922 64.793 16.9336V21H63.2344V16.9219C63.2344 16.6328 63.1914 16.4043 63.1055 16.2363C63.0234 16.0684 62.9023 15.9492 62.7422 15.8789C62.5859 15.8086 62.3926 15.7734 62.1621 15.7734C61.9238 15.7734 61.7148 15.8223 61.5352 15.9199C61.3594 16.0137 61.2109 16.1445 61.0898 16.3125C60.9727 16.4805 60.8828 16.6738 60.8203 16.8926C60.7578 17.1113 60.7266 17.3477 60.7266 17.6016ZM69.4082 14.6602V15.7734H65.7754V14.6602H69.4082ZM66.748 13.1016H68.3008V19.1719C68.3008 19.3594 68.3262 19.5039 68.377 19.6055C68.4277 19.707 68.5039 19.7754 68.6055 19.8105C68.707 19.8457 68.8281 19.8633 68.9688 19.8633C69.0703 19.8633 69.1641 19.8574 69.25 19.8457C69.3359 19.834 69.4082 19.8223 69.4668 19.8105L69.4727 20.9707C69.3438 21.0137 69.1973 21.0488 69.0332 21.0762C68.873 21.1035 68.6914 21.1172 68.4883 21.1172C68.1406 21.1172 67.8359 21.0586 67.5742 20.9414C67.3125 20.8203 67.1094 20.627 66.9648 20.3613C66.8203 20.0918 66.748 19.7363 66.748 19.2949V13.1016ZM72.1953 12V12.8613C72.1953 13.1074 72.1484 13.3652 72.0547 13.6348C71.9648 13.9004 71.8398 14.1543 71.6797 14.3965C71.5234 14.6348 71.3457 14.8398 71.1465 15.0117L70.3965 14.5605C70.5527 14.3223 70.6797 14.0684 70.7773 13.7988C70.8789 13.5254 70.9297 13.2148 70.9297 12.8672V12H72.1953ZM76.1484 19.2656C76.1484 19.1328 76.1133 19.0137 76.043 18.9082C75.9727 18.8027 75.8398 18.707 75.6445 18.6211C75.4531 18.5312 75.1719 18.4473 74.8008 18.3691C74.4727 18.2988 74.1699 18.2109 73.8926 18.1055C73.6152 18 73.377 17.873 73.1777 17.7246C72.9785 17.5723 72.8223 17.3945 72.709 17.1914C72.5996 16.9844 72.5449 16.7461 72.5449 16.4766C72.5449 16.2148 72.6016 15.9688 72.7148 15.7383C72.8281 15.5039 72.9922 15.2988 73.207 15.123C73.4219 14.9434 73.6836 14.8027 73.9922 14.7012C74.3008 14.5957 74.6484 14.543 75.0352 14.543C75.5742 14.543 76.0371 14.6309 76.4238 14.8066C76.8145 14.9824 77.1133 15.2246 77.3203 15.5332C77.5273 15.8379 77.6309 16.1816 77.6309 16.5645H76.084C76.084 16.3965 76.0449 16.2441 75.9668 16.1074C75.8926 15.9707 75.7773 15.8613 75.6211 15.7793C75.4648 15.6934 75.2676 15.6504 75.0293 15.6504C74.8145 15.6504 74.6328 15.6855 74.4844 15.7559C74.3398 15.8262 74.2305 15.918 74.1562 16.0312C74.082 16.1445 74.0449 16.2695 74.0449 16.4062C74.0449 16.5078 74.0645 16.5996 74.1035 16.6816C74.1465 16.7598 74.2148 16.832 74.3086 16.8984C74.4023 16.9648 74.5293 17.0254 74.6895 17.0801C74.8535 17.1348 75.0547 17.1875 75.293 17.2383C75.7656 17.332 76.1777 17.457 76.5293 17.6133C76.8848 17.7656 77.1621 17.9688 77.3613 18.2227C77.5605 18.4766 77.6602 18.8008 77.6602 19.1953C77.6602 19.4766 77.5996 19.7344 77.4785 19.9688C77.3574 20.1992 77.1816 20.4004 76.9512 20.5723C76.7207 20.7441 76.4453 20.8789 76.125 20.9766C75.8047 21.0703 75.4434 21.1172 75.041 21.1172C74.459 21.1172 73.9668 21.0137 73.5645 20.8066C73.1621 20.5957 72.8574 20.3301 72.6504 20.0098C72.4434 19.6855 72.3398 19.3496 72.3398 19.002H73.8223C73.834 19.248 73.9004 19.4453 74.0215 19.5938C74.1426 19.7422 74.2949 19.8496 74.4785 19.916C74.666 19.9785 74.8633 20.0098 75.0703 20.0098C75.3047 20.0098 75.502 19.9785 75.6621 19.916C75.8223 19.8496 75.9434 19.7617 76.0254 19.6523C76.1074 19.5391 76.1484 19.4102 76.1484 19.2656ZM83.9668 14.6602V21H82.4141V14.6602H83.9668ZM82.3086 13.002C82.3086 12.7715 82.3867 12.5801 82.543 12.4277C82.7031 12.2754 82.918 12.1992 83.1875 12.1992C83.457 12.1992 83.6699 12.2754 83.8262 12.4277C83.9863 12.5801 84.0664 12.7715 84.0664 13.002C84.0664 13.2285 83.9863 13.418 83.8262 13.5703C83.6699 13.7227 83.457 13.7988 83.1875 13.7988C82.918 13.7988 82.7031 13.7227 82.543 13.5703C82.3867 13.418 82.3086 13.2285 82.3086 13.002ZM87.2109 16.0137V21H85.6641V14.6602H87.1172L87.2109 16.0137ZM86.9648 17.6016H86.5078C86.5117 17.1406 86.5742 16.7227 86.6953 16.3477C86.8164 15.9727 86.9863 15.6504 87.2051 15.3809C87.4277 15.1113 87.6914 14.9043 87.9961 14.7598C88.3008 14.6152 88.6406 14.543 89.0156 14.543C89.3203 14.543 89.5957 14.5859 89.8418 14.6719C90.0879 14.7578 90.2988 14.8945 90.4746 15.082C90.6543 15.2695 90.791 15.5156 90.8848 15.8203C90.9824 16.1211 91.0312 16.4922 91.0312 16.9336V21H89.4727V16.9219C89.4727 16.6328 89.4297 16.4043 89.3438 16.2363C89.2617 16.0684 89.1406 15.9492 88.9805 15.8789C88.8242 15.8086 88.6309 15.7734 88.4004 15.7734C88.1621 15.7734 87.9531 15.8223 87.7734 15.9199C87.5977 16.0137 87.4492 16.1445 87.3281 16.3125C87.2109 16.4805 87.1211 16.6738 87.0586 16.8926C86.9961 17.1113 86.9648 17.3477 86.9648 17.6016ZM94.6738 21H93.1152V14.0742C93.1152 13.5977 93.207 13.1973 93.3906 12.873C93.5742 12.5449 93.8359 12.2969 94.1758 12.1289C94.5156 11.9609 94.916 11.877 95.377 11.877C95.5293 11.877 95.6738 11.8867 95.8105 11.9062C95.9512 11.9258 96.0898 11.9531 96.2266 11.9883L96.1973 13.166C96.123 13.1465 96.041 13.1328 95.9512 13.125C95.8652 13.1172 95.7695 13.1133 95.6641 13.1133C95.4531 13.1133 95.2734 13.1504 95.125 13.2246C94.9766 13.2988 94.8633 13.4082 94.7852 13.5527C94.7109 13.6934 94.6738 13.8672 94.6738 14.0742V21ZM95.957 14.6602V15.7734H92.1602V14.6602H95.957ZM96.8867 17.8945V17.7715C96.8867 17.3066 96.9531 16.8789 97.0859 16.4883C97.2188 16.0938 97.4121 15.752 97.666 15.4629C97.9199 15.1738 98.2305 14.9492 98.5977 14.7891C98.9648 14.625 99.3828 14.543 99.8516 14.543C100.328 14.543 100.75 14.625 101.117 14.7891C101.488 14.9492 101.801 15.1738 102.055 15.4629C102.309 15.752 102.502 16.0938 102.635 16.4883C102.768 16.8789 102.834 17.3066 102.834 17.7715V17.8945C102.834 18.3555 102.768 18.7832 102.635 19.1777C102.502 19.5684 102.309 19.9102 102.055 20.2031C101.801 20.4922 101.49 20.7168 101.123 20.877C100.756 21.0371 100.336 21.1172 99.8633 21.1172C99.3945 21.1172 98.9746 21.0371 98.6035 20.877C98.2324 20.7168 97.9199 20.4922 97.666 20.2031C97.4121 19.9102 97.2188 19.5684 97.0859 19.1777C96.9531 18.7832 96.8867 18.3555 96.8867 17.8945ZM98.4336 17.7715V17.8945C98.4336 18.1719 98.4609 18.4316 98.5156 18.6738C98.5703 18.916 98.6543 19.1289 98.7676 19.3125C98.8809 19.4961 99.0273 19.6406 99.207 19.7461C99.3906 19.8477 99.6094 19.8984 99.8633 19.8984C100.113 19.8984 100.328 19.8477 100.508 19.7461C100.688 19.6406 100.834 19.4961 100.947 19.3125C101.064 19.1289 101.15 18.916 101.205 18.6738C101.26 18.4316 101.287 18.1719 101.287 17.8945V17.7715C101.287 17.498 101.26 17.2422 101.205 17.0039C101.15 16.7617 101.064 16.5488 100.947 16.3652C100.834 16.1777 100.686 16.0312 100.502 15.9258C100.322 15.8164 100.105 15.7617 99.8516 15.7617C99.6016 15.7617 99.3867 15.8164 99.207 15.9258C99.0273 16.0312 98.8809 16.1777 98.7676 16.3652C98.6543 16.5488 98.5703 16.7617 98.5156 17.0039C98.4609 17.2422 98.4336 17.498 98.4336 17.7715ZM105.756 15.9551V21H104.209V14.6602H105.674L105.756 15.9551ZM107.684 14.6191L107.66 16.0605C107.574 16.0449 107.477 16.0332 107.367 16.0254C107.262 16.0176 107.162 16.0137 107.068 16.0137C106.83 16.0137 106.621 16.0469 106.441 16.1133C106.262 16.1758 106.111 16.2676 105.99 16.3887C105.873 16.5098 105.783 16.6582 105.721 16.834C105.658 17.0059 105.623 17.2012 105.615 17.4199L105.281 17.3789C105.281 16.9766 105.322 16.6035 105.404 16.2598C105.486 15.916 105.605 15.6152 105.762 15.3574C105.918 15.0996 106.113 14.9004 106.348 14.7598C106.586 14.6152 106.859 14.543 107.168 14.543C107.254 14.543 107.346 14.5508 107.443 14.5664C107.545 14.5781 107.625 14.5957 107.684 14.6191ZM110.324 15.9609V21H108.777V14.6602H110.236L110.324 15.9609ZM110.096 17.6016H109.621C109.621 17.1602 109.674 16.7539 109.779 16.3828C109.889 16.0117 110.049 15.6895 110.26 15.416C110.471 15.1387 110.73 14.9238 111.039 14.7715C111.352 14.6191 111.713 14.543 112.123 14.543C112.408 14.543 112.67 14.5859 112.908 14.6719C113.146 14.7539 113.352 14.8848 113.523 15.0645C113.699 15.2402 113.834 15.4707 113.928 15.7559C114.021 16.0371 114.068 16.375 114.068 16.7695V21H112.521V16.9277C112.521 16.6309 112.479 16.3984 112.393 16.2305C112.311 16.0625 112.191 15.9453 112.035 15.8789C111.879 15.8086 111.691 15.7734 111.473 15.7734C111.23 15.7734 111.021 15.8223 110.846 15.9199C110.674 16.0137 110.531 16.1445 110.418 16.3125C110.309 16.4805 110.227 16.6738 110.172 16.8926C110.121 17.1113 110.096 17.3477 110.096 17.6016ZM113.951 17.3145L113.312 17.4316C113.316 17.0332 113.371 16.6602 113.477 16.3125C113.582 15.9609 113.736 15.6543 113.939 15.3926C114.146 15.127 114.402 14.9199 114.707 14.7715C115.016 14.6191 115.371 14.543 115.773 14.543C116.086 14.543 116.367 14.5879 116.617 14.6777C116.871 14.7637 117.088 14.9023 117.268 15.0938C117.447 15.2812 117.584 15.5254 117.678 15.8262C117.775 16.127 117.824 16.4941 117.824 16.9277V21H116.266V16.9219C116.266 16.6133 116.223 16.377 116.137 16.2129C116.055 16.0488 115.936 15.9355 115.779 15.873C115.623 15.8066 115.439 15.7734 115.229 15.7734C115.014 15.7734 114.826 15.8145 114.666 15.8965C114.51 15.9746 114.377 16.084 114.268 16.2246C114.162 16.3652 114.082 16.5293 114.027 16.7168C113.977 16.9004 113.951 17.0996 113.951 17.3145ZM122.955 19.6523V16.7285C122.955 16.5137 122.918 16.3281 122.844 16.1719C122.77 16.0156 122.656 15.8945 122.504 15.8086C122.352 15.7227 122.158 15.6797 121.924 15.6797C121.717 15.6797 121.535 15.7148 121.379 15.7852C121.227 15.8555 121.109 15.9551 121.027 16.084C120.945 16.209 120.904 16.3535 120.904 16.5176H119.352C119.352 16.2559 119.414 16.0078 119.539 15.7734C119.664 15.5352 119.842 15.3242 120.072 15.1406C120.307 14.9531 120.586 14.8066 120.91 14.7012C121.238 14.5957 121.605 14.543 122.012 14.543C122.492 14.543 122.92 14.625 123.295 14.7891C123.674 14.9492 123.971 15.1914 124.186 15.5156C124.404 15.8398 124.514 16.248 124.514 16.7402V19.5059C124.514 19.8223 124.533 20.0938 124.572 20.3203C124.615 20.543 124.678 20.7363 124.76 20.9004V21H123.184C123.109 20.8398 123.053 20.6367 123.014 20.3906C122.975 20.1406 122.955 19.8945 122.955 19.6523ZM123.172 17.1387L123.184 18.0586H122.205C121.963 18.0586 121.75 18.084 121.566 18.1348C121.383 18.1816 121.232 18.252 121.115 18.3457C120.998 18.4355 120.91 18.5449 120.852 18.6738C120.793 18.7988 120.764 18.9414 120.764 19.1016C120.764 19.2578 120.799 19.3984 120.869 19.5234C120.943 19.6484 121.049 19.748 121.186 19.8223C121.326 19.8926 121.49 19.9277 121.678 19.9277C121.951 19.9277 122.189 19.873 122.393 19.7637C122.596 19.6504 122.754 19.5137 122.867 19.3535C122.98 19.1934 123.041 19.041 123.049 18.8965L123.494 19.5645C123.439 19.7246 123.357 19.8945 123.248 20.0742C123.139 20.2539 122.998 20.4219 122.826 20.5781C122.654 20.7344 122.447 20.8633 122.205 20.9648C121.963 21.0664 121.682 21.1172 121.361 21.1172C120.951 21.1172 120.584 21.0352 120.26 20.8711C119.936 20.707 119.68 20.4824 119.492 20.1973C119.305 19.9121 119.211 19.5879 119.211 19.2246C119.211 18.8887 119.273 18.5918 119.398 18.334C119.523 18.0762 119.709 17.8594 119.955 17.6836C120.201 17.5039 120.506 17.3691 120.869 17.2793C121.236 17.1855 121.656 17.1387 122.129 17.1387H123.172ZM129.158 14.6602V15.7734H125.525V14.6602H129.158ZM126.498 13.1016H128.051V19.1719C128.051 19.3594 128.076 19.5039 128.127 19.6055C128.178 19.707 128.254 19.7754 128.355 19.8105C128.457 19.8457 128.578 19.8633 128.719 19.8633C128.82 19.8633 128.914 19.8574 129 19.8457C129.086 19.834 129.158 19.8223 129.217 19.8105L129.223 20.9707C129.094 21.0137 128.947 21.0488 128.783 21.0762C128.623 21.1035 128.441 21.1172 128.238 21.1172C127.891 21.1172 127.586 21.0586 127.324 20.9414C127.062 20.8203 126.859 20.627 126.715 20.3613C126.57 20.0918 126.498 19.7363 126.498 19.2949V13.1016ZM132.08 14.6602V21H130.527V14.6602H132.08ZM130.422 13.002C130.422 12.7715 130.5 12.5801 130.656 12.4277C130.816 12.2754 131.031 12.1992 131.301 12.1992C131.57 12.1992 131.783 12.2754 131.939 12.4277C132.1 12.5801 132.18 12.7715 132.18 13.002C132.18 13.2285 132.1 13.418 131.939 13.5703C131.783 13.7227 131.57 13.7988 131.301 13.7988C131.031 13.7988 130.816 13.7227 130.656 13.5703C130.5 13.418 130.422 13.2285 130.422 13.002ZM133.531 17.8945V17.7715C133.531 17.3066 133.598 16.8789 133.73 16.4883C133.863 16.0938 134.057 15.752 134.311 15.4629C134.564 15.1738 134.875 14.9492 135.242 14.7891C135.609 14.625 136.027 14.543 136.496 14.543C136.973 14.543 137.395 14.625 137.762 14.7891C138.133 14.9492 138.445 15.1738 138.699 15.4629C138.953 15.752 139.146 16.0938 139.279 16.4883C139.412 16.8789 139.479 17.3066 139.479 17.7715V17.8945C139.479 18.3555 139.412 18.7832 139.279 19.1777C139.146 19.5684 138.953 19.9102 138.699 20.2031C138.445 20.4922 138.135 20.7168 137.768 20.877C137.4 21.0371 136.98 21.1172 136.508 21.1172C136.039 21.1172 135.619 21.0371 135.248 20.877C134.877 20.7168 134.564 20.4922 134.311 20.2031C134.057 19.9102 133.863 19.5684 133.73 19.1777C133.598 18.7832 133.531 18.3555 133.531 17.8945ZM135.078 17.7715V17.8945C135.078 18.1719 135.105 18.4316 135.16 18.6738C135.215 18.916 135.299 19.1289 135.412 19.3125C135.525 19.4961 135.672 19.6406 135.852 19.7461C136.035 19.8477 136.254 19.8984 136.508 19.8984C136.758 19.8984 136.973 19.8477 137.152 19.7461C137.332 19.6406 137.479 19.4961 137.592 19.3125C137.709 19.1289 137.795 18.916 137.85 18.6738C137.904 18.4316 137.932 18.1719 137.932 17.8945V17.7715C137.932 17.498 137.904 17.2422 137.85 17.0039C137.795 16.7617 137.709 16.5488 137.592 16.3652C137.479 16.1777 137.33 16.0312 137.146 15.9258C136.967 15.8164 136.75 15.7617 136.496 15.7617C136.246 15.7617 136.031 15.8164 135.852 15.9258C135.672 16.0312 135.525 16.1777 135.412 16.3652C135.299 16.5488 135.215 16.7617 135.16 17.0039C135.105 17.2422 135.078 17.498 135.078 17.7715ZM142.371 16.0137V21H140.824V14.6602H142.277L142.371 16.0137ZM142.125 17.6016H141.668C141.672 17.1406 141.734 16.7227 141.855 16.3477C141.977 15.9727 142.146 15.6504 142.365 15.3809C142.588 15.1113 142.852 14.9043 143.156 14.7598C143.461 14.6152 143.801 14.543 144.176 14.543C144.48 14.543 144.756 14.5859 145.002 14.6719C145.248 14.7578 145.459 14.8945 145.635 15.082C145.814 15.2695 145.951 15.5156 146.045 15.8203C146.143 16.1211 146.191 16.4922 146.191 16.9336V21H144.633V16.9219C144.633 16.6328 144.59 16.4043 144.504 16.2363C144.422 16.0684 144.301 15.9492 144.141 15.8789C143.984 15.8086 143.791 15.7734 143.561 15.7734C143.322 15.7734 143.113 15.8223 142.934 15.9199C142.758 16.0137 142.609 16.1445 142.488 16.3125C142.371 16.4805 142.281 16.6738 142.219 16.8926C142.156 17.1113 142.125 17.3477 142.125 17.6016Z" fill="#29627C"/>
<path d="M46.4707 84.5879V87.9102C46.3457 88.0703 46.1484 88.2441 45.8789 88.4316C45.6133 88.6191 45.2656 88.7812 44.8359 88.918C44.4062 89.0508 43.8789 89.1172 43.2539 89.1172C42.7109 89.1172 42.2148 89.0273 41.7656 88.8477C41.3164 88.6641 40.9297 88.3965 40.6055 88.0449C40.2812 87.6934 40.0312 87.2637 39.8555 86.7559C39.6797 86.248 39.5918 85.668 39.5918 85.0156V84.4531C39.5918 83.8008 39.6738 83.2207 39.8379 82.7129C40.0059 82.2051 40.2441 81.7754 40.5527 81.4238C40.8652 81.0723 41.2383 80.8047 41.6719 80.6211C42.1094 80.4375 42.5977 80.3457 43.1367 80.3457C43.8594 80.3457 44.4531 80.4648 44.918 80.7031C45.3867 80.9414 45.7461 81.2695 45.9961 81.6875C46.2461 82.1016 46.4023 82.5781 46.4648 83.1172H44.8945C44.8516 82.8203 44.7656 82.5605 44.6367 82.3379C44.5078 82.1113 44.3242 81.9355 44.0859 81.8105C43.8516 81.6816 43.5469 81.6172 43.1719 81.6172C42.8555 81.6172 42.5762 81.6797 42.334 81.8047C42.0918 81.9297 41.8887 82.1113 41.7246 82.3496C41.5605 82.5879 41.4355 82.8828 41.3496 83.2344C41.2676 83.5859 41.2266 83.9883 41.2266 84.4414V85.0156C41.2266 85.4727 41.2734 85.8789 41.3672 86.2344C41.4609 86.5859 41.5957 86.8828 41.7715 87.125C41.9512 87.3633 42.1719 87.5449 42.4336 87.6699C42.6992 87.791 43 87.8516 43.3359 87.8516C43.6406 87.8516 43.8926 87.8262 44.0918 87.7754C44.2949 87.7207 44.457 87.6562 44.5781 87.582C44.6992 87.5078 44.793 87.4355 44.8594 87.3652V85.7656H43.166V84.5879H46.4707ZM51.9004 87.4941V82.6602H53.459V89H51.9941L51.9004 87.4941ZM52.0996 86.1816L52.5801 86.1699C52.5801 86.5957 52.5332 86.9883 52.4395 87.3477C52.3457 87.707 52.1992 88.0195 52 88.2852C51.8047 88.5469 51.5566 88.752 51.2559 88.9004C50.9551 89.0449 50.5996 89.1172 50.1895 89.1172C49.877 89.1172 49.5918 89.0742 49.334 88.9883C49.0762 88.8984 48.8535 88.7598 48.666 88.5723C48.4824 88.3809 48.3398 88.1367 48.2383 87.8398C48.1367 87.5391 48.0859 87.1777 48.0859 86.7559V82.6602H49.6328V86.7676C49.6328 86.9785 49.6562 87.1543 49.7031 87.2949C49.7539 87.4355 49.8223 87.5508 49.9082 87.6406C49.998 87.7266 50.1016 87.7891 50.2188 87.8281C50.3398 87.8633 50.4688 87.8809 50.6055 87.8809C50.9805 87.8809 51.2754 87.8066 51.4902 87.6582C51.709 87.5059 51.8652 87.3027 51.959 87.0488C52.0527 86.791 52.0996 86.502 52.0996 86.1816ZM57.9277 89.1172C57.4473 89.1172 57.0156 89.0391 56.6328 88.8828C56.25 88.7266 55.9238 88.5098 55.6543 88.2324C55.3887 87.9512 55.1836 87.625 55.0391 87.2539C54.8984 86.8789 54.8281 86.4766 54.8281 86.0469V85.8125C54.8281 85.3242 54.8984 84.8809 55.0391 84.4824C55.1797 84.0801 55.3789 83.7344 55.6367 83.4453C55.8945 83.1562 56.2031 82.9336 56.5625 82.7773C56.9219 82.6211 57.3184 82.543 57.752 82.543C58.2012 82.543 58.5977 82.6191 58.9414 82.7715C59.2852 82.9199 59.5723 83.1309 59.8027 83.4043C60.0332 83.6777 60.207 84.0059 60.3242 84.3887C60.4414 84.7676 60.5 85.1875 60.5 85.6484V86.2988H55.5312V85.2324H58.9766V85.1152C58.9688 84.8691 58.9219 84.6445 58.8359 84.4414C58.75 84.2344 58.6172 84.0703 58.4375 83.9492C58.2578 83.8242 58.0254 83.7617 57.7402 83.7617C57.5098 83.7617 57.3086 83.8125 57.1367 83.9141C56.9688 84.0117 56.8281 84.1523 56.7148 84.3359C56.6055 84.5156 56.5234 84.7305 56.4688 84.9805C56.4141 85.2305 56.3867 85.5078 56.3867 85.8125V86.0469C56.3867 86.3125 56.4219 86.5586 56.4922 86.7852C56.5664 87.0117 56.6738 87.209 56.8145 87.377C56.959 87.541 57.1309 87.6699 57.3301 87.7637C57.5332 87.8535 57.7637 87.8984 58.0215 87.8984C58.3457 87.8984 58.6387 87.8359 58.9004 87.7109C59.166 87.582 59.3965 87.3926 59.5918 87.1426L60.3711 87.9512C60.2383 88.1465 60.0586 88.334 59.832 88.5137C59.6094 88.6934 59.3398 88.8398 59.0234 88.9531C58.707 89.0625 58.3418 89.1172 57.9277 89.1172ZM65.2734 87.2656C65.2734 87.1328 65.2383 87.0137 65.168 86.9082C65.0977 86.8027 64.9648 86.707 64.7695 86.6211C64.5781 86.5312 64.2969 86.4473 63.9258 86.3691C63.5977 86.2988 63.2949 86.2109 63.0176 86.1055C62.7402 86 62.502 85.873 62.3027 85.7246C62.1035 85.5723 61.9473 85.3945 61.834 85.1914C61.7246 84.9844 61.6699 84.7461 61.6699 84.4766C61.6699 84.2148 61.7266 83.9688 61.8398 83.7383C61.9531 83.5039 62.1172 83.2988 62.332 83.123C62.5469 82.9434 62.8086 82.8027 63.1172 82.7012C63.4258 82.5957 63.7734 82.543 64.1602 82.543C64.6992 82.543 65.1621 82.6309 65.5488 82.8066C65.9395 82.9824 66.2383 83.2246 66.4453 83.5332C66.6523 83.8379 66.7559 84.1816 66.7559 84.5645H65.209C65.209 84.3965 65.1699 84.2441 65.0918 84.1074C65.0176 83.9707 64.9023 83.8613 64.7461 83.7793C64.5898 83.6934 64.3926 83.6504 64.1543 83.6504C63.9395 83.6504 63.7578 83.6855 63.6094 83.7559C63.4648 83.8262 63.3555 83.918 63.2812 84.0312C63.207 84.1445 63.1699 84.2695 63.1699 84.4062C63.1699 84.5078 63.1895 84.5996 63.2285 84.6816C63.2715 84.7598 63.3398 84.832 63.4336 84.8984C63.5273 84.9648 63.6543 85.0254 63.8145 85.0801C63.9785 85.1348 64.1797 85.1875 64.418 85.2383C64.8906 85.332 65.3027 85.457 65.6543 85.6133C66.0098 85.7656 66.2871 85.9688 66.4863 86.2227C66.6855 86.4766 66.7852 86.8008 66.7852 87.1953C66.7852 87.4766 66.7246 87.7344 66.6035 87.9688C66.4824 88.1992 66.3066 88.4004 66.0762 88.5723C65.8457 88.7441 65.5703 88.8789 65.25 88.9766C64.9297 89.0703 64.5684 89.1172 64.166 89.1172C63.584 89.1172 63.0918 89.0137 62.6895 88.8066C62.2871 88.5957 61.9824 88.3301 61.7754 88.0098C61.5684 87.6855 61.4648 87.3496 61.4648 87.002H62.9473C62.959 87.248 63.0254 87.4453 63.1465 87.5938C63.2676 87.7422 63.4199 87.8496 63.6035 87.916C63.791 87.9785 63.9883 88.0098 64.1953 88.0098C64.4297 88.0098 64.627 87.9785 64.7871 87.916C64.9473 87.8496 65.0684 87.7617 65.1504 87.6523C65.2324 87.5391 65.2734 87.4102 65.2734 87.2656ZM71.2129 82.6602V83.7734H67.5801V82.6602H71.2129ZM68.5527 81.1016H70.1055V87.1719C70.1055 87.3594 70.1309 87.5039 70.1816 87.6055C70.2324 87.707 70.3086 87.7754 70.4102 87.8105C70.5117 87.8457 70.6328 87.8633 70.7734 87.8633C70.875 87.8633 70.9688 87.8574 71.0547 87.8457C71.1406 87.834 71.2129 87.8223 71.2715 87.8105L71.2773 88.9707C71.1484 89.0137 71.002 89.0488 70.8379 89.0762C70.6777 89.1035 70.4961 89.1172 70.293 89.1172C69.9453 89.1172 69.6406 89.0586 69.3789 88.9414C69.1172 88.8203 68.9141 88.627 68.7695 88.3613C68.625 88.0918 68.5527 87.7363 68.5527 87.2949V81.1016ZM75.9805 87.2656C75.9805 87.1328 75.9453 87.0137 75.875 86.9082C75.8047 86.8027 75.6719 86.707 75.4766 86.6211C75.2852 86.5312 75.0039 86.4473 74.6328 86.3691C74.3047 86.2988 74.002 86.2109 73.7246 86.1055C73.4473 86 73.209 85.873 73.0098 85.7246C72.8105 85.5723 72.6543 85.3945 72.541 85.1914C72.4316 84.9844 72.377 84.7461 72.377 84.4766C72.377 84.2148 72.4336 83.9688 72.5469 83.7383C72.6602 83.5039 72.8242 83.2988 73.0391 83.123C73.2539 82.9434 73.5156 82.8027 73.8242 82.7012C74.1328 82.5957 74.4805 82.543 74.8672 82.543C75.4062 82.543 75.8691 82.6309 76.2559 82.8066C76.6465 82.9824 76.9453 83.2246 77.1523 83.5332C77.3594 83.8379 77.4629 84.1816 77.4629 84.5645H75.916C75.916 84.3965 75.877 84.2441 75.7988 84.1074C75.7246 83.9707 75.6094 83.8613 75.4531 83.7793C75.2969 83.6934 75.0996 83.6504 74.8613 83.6504C74.6465 83.6504 74.4648 83.6855 74.3164 83.7559C74.1719 83.8262 74.0625 83.918 73.9883 84.0312C73.9141 84.1445 73.877 84.2695 73.877 84.4062C73.877 84.5078 73.8965 84.5996 73.9355 84.6816C73.9785 84.7598 74.0469 84.832 74.1406 84.8984C74.2344 84.9648 74.3613 85.0254 74.5215 85.0801C74.6855 85.1348 74.8867 85.1875 75.125 85.2383C75.5977 85.332 76.0098 85.457 76.3613 85.6133C76.7168 85.7656 76.9941 85.9688 77.1934 86.2227C77.3926 86.4766 77.4922 86.8008 77.4922 87.1953C77.4922 87.4766 77.4316 87.7344 77.3105 87.9688C77.1895 88.1992 77.0137 88.4004 76.7832 88.5723C76.5527 88.7441 76.2773 88.8789 75.957 88.9766C75.6367 89.0703 75.2754 89.1172 74.873 89.1172C74.291 89.1172 73.7988 89.0137 73.3965 88.8066C72.9941 88.5957 72.6895 88.3301 72.4824 88.0098C72.2754 87.6855 72.1719 87.3496 72.1719 87.002H73.6543C73.666 87.248 73.7324 87.4453 73.8535 87.5938C73.9746 87.7422 74.127 87.8496 74.3105 87.916C74.498 87.9785 74.6953 88.0098 74.9023 88.0098C75.1367 88.0098 75.334 87.9785 75.4941 87.916C75.6543 87.8496 75.7754 87.7617 75.8574 87.6523C75.9395 87.5391 75.9805 87.4102 75.9805 87.2656Z" fill="#29627C"/>
<path d="M43.0957 221.889H40.8984V220.623H43.0957C43.4551 220.623 43.7461 220.564 43.9688 220.447C44.1953 220.326 44.3613 220.162 44.4668 219.955C44.5723 219.744 44.625 219.504 44.625 219.234C44.625 218.973 44.5723 218.729 44.4668 218.502C44.3613 218.275 44.1953 218.092 43.9688 217.951C43.7461 217.811 43.4551 217.74 43.0957 217.74H41.4258V225H39.8145V216.469H43.0957C43.7598 216.469 44.3262 216.588 44.7949 216.826C45.2676 217.061 45.627 217.387 45.873 217.805C46.123 218.219 46.248 218.691 46.248 219.223C46.248 219.773 46.123 220.248 45.873 220.646C45.627 221.045 45.2676 221.352 44.7949 221.566C44.3262 221.781 43.7598 221.889 43.0957 221.889ZM49.2871 218.66V225H47.7344V218.66H49.2871ZM47.6289 217.002C47.6289 216.771 47.707 216.58 47.8633 216.428C48.0234 216.275 48.2383 216.199 48.5078 216.199C48.7773 216.199 48.9902 216.275 49.1465 216.428C49.3066 216.58 49.3867 216.771 49.3867 217.002C49.3867 217.229 49.3066 217.418 49.1465 217.57C48.9902 217.723 48.7773 217.799 48.5078 217.799C48.2383 217.799 48.0234 217.723 47.8633 217.57C47.707 217.418 47.6289 217.229 47.6289 217.002ZM53.6152 223.898C53.834 223.898 54.0293 223.855 54.2012 223.77C54.373 223.684 54.5098 223.562 54.6113 223.406C54.7168 223.25 54.7734 223.068 54.7812 222.861H56.2402C56.2324 223.291 56.1113 223.676 55.877 224.016C55.6426 224.355 55.3301 224.625 54.9395 224.824C54.5527 225.02 54.1191 225.117 53.6387 225.117C53.1504 225.117 52.7246 225.035 52.3613 224.871C51.998 224.707 51.6953 224.479 51.4531 224.186C51.2148 223.893 51.0352 223.553 50.9141 223.166C50.7969 222.779 50.7383 222.365 50.7383 221.924V221.736C50.7383 221.295 50.7969 220.881 50.9141 220.494C51.0352 220.107 51.2148 219.768 51.4531 219.475C51.6953 219.182 51.998 218.953 52.3613 218.789C52.7246 218.625 53.1484 218.543 53.6328 218.543C54.1445 218.543 54.5938 218.643 54.9805 218.842C55.3711 219.041 55.6758 219.322 55.8945 219.686C56.1172 220.049 56.2324 220.477 56.2402 220.969H54.7812C54.7734 220.742 54.7227 220.539 54.6289 220.359C54.5352 220.18 54.4023 220.035 54.2305 219.926C54.0586 219.816 53.8496 219.762 53.6035 219.762C53.3418 219.762 53.123 219.816 52.9473 219.926C52.7754 220.035 52.6406 220.186 52.543 220.377C52.4492 220.564 52.3828 220.775 52.3438 221.01C52.3086 221.24 52.291 221.482 52.291 221.736V221.924C52.291 222.182 52.3086 222.428 52.3438 222.662C52.3828 222.896 52.4492 223.107 52.543 223.295C52.6406 223.479 52.7754 223.625 52.9473 223.734C53.123 223.844 53.3457 223.898 53.6152 223.898ZM60.5215 218.66V219.773H56.8887V218.66H60.5215ZM57.8613 217.102H59.4141V223.172C59.4141 223.359 59.4395 223.504 59.4902 223.605C59.541 223.707 59.6172 223.775 59.7188 223.811C59.8203 223.846 59.9414 223.863 60.082 223.863C60.1836 223.863 60.2773 223.857 60.3633 223.846C60.4492 223.834 60.5215 223.822 60.5801 223.811L60.5859 224.971C60.457 225.014 60.3105 225.049 60.1465 225.076C59.9863 225.104 59.8047 225.117 59.6016 225.117C59.2539 225.117 58.9492 225.059 58.6875 224.941C58.4258 224.82 58.2227 224.627 58.0781 224.361C57.9336 224.092 57.8613 223.736 57.8613 223.295V217.102ZM65.5762 223.494V218.66H67.1348V225H65.6699L65.5762 223.494ZM65.7754 222.182L66.2559 222.17C66.2559 222.596 66.209 222.988 66.1152 223.348C66.0215 223.707 65.875 224.02 65.6758 224.285C65.4805 224.547 65.2324 224.752 64.9316 224.9C64.6309 225.045 64.2754 225.117 63.8652 225.117C63.5527 225.117 63.2676 225.074 63.0098 224.988C62.752 224.898 62.5293 224.76 62.3418 224.572C62.1582 224.381 62.0156 224.137 61.9141 223.84C61.8125 223.539 61.7617 223.178 61.7617 222.756V218.66H63.3086V222.768C63.3086 222.979 63.332 223.154 63.3789 223.295C63.4297 223.436 63.498 223.551 63.584 223.641C63.6738 223.727 63.7773 223.789 63.8945 223.828C64.0156 223.863 64.1445 223.881 64.2812 223.881C64.6562 223.881 64.9512 223.807 65.166 223.658C65.3848 223.506 65.541 223.303 65.6348 223.049C65.7285 222.791 65.7754 222.502 65.7754 222.182ZM70.3027 219.955V225H68.7559V218.66H70.2207L70.3027 219.955ZM72.2305 218.619L72.207 220.061C72.1211 220.045 72.0234 220.033 71.9141 220.025C71.8086 220.018 71.709 220.014 71.6152 220.014C71.377 220.014 71.168 220.047 70.9883 220.113C70.8086 220.176 70.6582 220.268 70.5371 220.389C70.4199 220.51 70.3301 220.658 70.2676 220.834C70.2051 221.006 70.1699 221.201 70.1621 221.42L69.8281 221.379C69.8281 220.977 69.8691 220.604 69.9512 220.26C70.0332 219.916 70.1523 219.615 70.3086 219.357C70.4648 219.1 70.6602 218.9 70.8945 218.76C71.1328 218.615 71.4062 218.543 71.7148 218.543C71.8008 218.543 71.8926 218.551 71.9902 218.566C72.0918 218.578 72.1719 218.596 72.2305 218.619ZM76.0605 225.117C75.5801 225.117 75.1484 225.039 74.7656 224.883C74.3828 224.727 74.0566 224.51 73.7871 224.232C73.5215 223.951 73.3164 223.625 73.1719 223.254C73.0312 222.879 72.9609 222.477 72.9609 222.047V221.812C72.9609 221.324 73.0312 220.881 73.1719 220.482C73.3125 220.08 73.5117 219.734 73.7695 219.445C74.0273 219.156 74.3359 218.934 74.6953 218.777C75.0547 218.621 75.4512 218.543 75.8848 218.543C76.334 218.543 76.7305 218.619 77.0742 218.771C77.418 218.92 77.7051 219.131 77.9355 219.404C78.166 219.678 78.3398 220.006 78.457 220.389C78.5742 220.768 78.6328 221.188 78.6328 221.648V222.299H73.6641V221.232H77.1094V221.115C77.1016 220.869 77.0547 220.645 76.9688 220.441C76.8828 220.234 76.75 220.07 76.5703 219.949C76.3906 219.824 76.1582 219.762 75.873 219.762C75.6426 219.762 75.4414 219.812 75.2695 219.914C75.1016 220.012 74.9609 220.152 74.8477 220.336C74.7383 220.516 74.6562 220.73 74.6016 220.98C74.5469 221.23 74.5195 221.508 74.5195 221.812V222.047C74.5195 222.312 74.5547 222.559 74.625 222.785C74.6992 223.012 74.8066 223.209 74.9473 223.377C75.0918 223.541 75.2637 223.67 75.4629 223.764C75.666 223.854 75.8965 223.898 76.1543 223.898C76.4785 223.898 76.7715 223.836 77.0332 223.711C77.2988 223.582 77.5293 223.393 77.7246 223.143L78.5039 223.951C78.3711 224.146 78.1914 224.334 77.9648 224.514C77.7422 224.693 77.4727 224.84 77.1562 224.953C76.8398 225.062 76.4746 225.117 76.0605 225.117Z" fill="#29627C" fill-opacity="0.15"/>
<path d="M44.8066 154.193H46.418C46.375 154.764 46.2168 155.27 45.9434 155.711C45.6699 156.148 45.2891 156.492 44.8008 156.742C44.3125 156.992 43.7207 157.117 43.0254 157.117C42.4902 157.117 42.0078 157.023 41.5781 156.836C41.1523 156.645 40.7871 156.373 40.4824 156.021C40.1816 155.666 39.9512 155.24 39.791 154.744C39.6309 154.244 39.5508 153.684 39.5508 153.062V152.412C39.5508 151.791 39.6328 151.23 39.7969 150.73C39.9609 150.23 40.1953 149.805 40.5 149.453C40.8086 149.098 41.1777 148.824 41.6074 148.633C42.041 148.441 42.5254 148.346 43.0605 148.346C43.7559 148.346 44.3438 148.475 44.8242 148.732C45.3047 148.986 45.6777 149.336 45.9434 149.781C46.209 150.227 46.3691 150.738 46.4238 151.316H44.8125C44.7812 150.957 44.7031 150.652 44.5781 150.402C44.457 150.152 44.2734 149.963 44.0273 149.834C43.7852 149.701 43.4629 149.635 43.0605 149.635C42.748 149.635 42.4727 149.693 42.2344 149.811C42 149.928 41.8047 150.104 41.6484 150.338C41.4922 150.568 41.375 150.857 41.2969 151.205C41.2188 151.549 41.1797 151.947 41.1797 152.4V153.062C41.1797 153.496 41.2148 153.885 41.2852 154.229C41.3555 154.572 41.4648 154.863 41.6133 155.102C41.7617 155.34 41.9531 155.521 42.1875 155.646C42.4219 155.771 42.7012 155.834 43.0254 155.834C43.4199 155.834 43.7402 155.771 43.9863 155.646C44.2363 155.521 44.4258 155.338 44.5547 155.096C44.6875 154.854 44.7715 154.553 44.8066 154.193ZM47.5234 153.895V153.771C47.5234 153.307 47.5898 152.879 47.7227 152.488C47.8555 152.094 48.0488 151.752 48.3027 151.463C48.5566 151.174 48.8672 150.949 49.2344 150.789C49.6016 150.625 50.0195 150.543 50.4883 150.543C50.9648 150.543 51.3867 150.625 51.7539 150.789C52.125 150.949 52.4375 151.174 52.6914 151.463C52.9453 151.752 53.1387 152.094 53.2715 152.488C53.4043 152.879 53.4707 153.307 53.4707 153.771V153.895C53.4707 154.355 53.4043 154.783 53.2715 155.178C53.1387 155.568 52.9453 155.91 52.6914 156.203C52.4375 156.492 52.127 156.717 51.7598 156.877C51.3926 157.037 50.9727 157.117 50.5 157.117C50.0312 157.117 49.6113 157.037 49.2402 156.877C48.8691 156.717 48.5566 156.492 48.3027 156.203C48.0488 155.91 47.8555 155.568 47.7227 155.178C47.5898 154.783 47.5234 154.355 47.5234 153.895ZM49.0703 153.771V153.895C49.0703 154.172 49.0977 154.432 49.1523 154.674C49.207 154.916 49.291 155.129 49.4043 155.312C49.5176 155.496 49.6641 155.641 49.8438 155.746C50.0273 155.848 50.2461 155.898 50.5 155.898C50.75 155.898 50.9648 155.848 51.1445 155.746C51.3242 155.641 51.4707 155.496 51.584 155.312C51.7012 155.129 51.7871 154.916 51.8418 154.674C51.8965 154.432 51.9238 154.172 51.9238 153.895V153.771C51.9238 153.498 51.8965 153.242 51.8418 153.004C51.7871 152.762 51.7012 152.549 51.584 152.365C51.4707 152.178 51.3223 152.031 51.1387 151.926C50.959 151.816 50.7422 151.762 50.4883 151.762C50.2383 151.762 50.0234 151.816 49.8438 151.926C49.6641 152.031 49.5176 152.178 49.4043 152.365C49.291 152.549 49.207 152.762 49.1523 153.004C49.0977 153.242 49.0703 153.498 49.0703 153.771ZM56.4863 148V157H54.9336V148H56.4863ZM59.8535 148V157H58.3008V148H59.8535ZM65.0723 155.652V152.729C65.0723 152.514 65.0352 152.328 64.9609 152.172C64.8867 152.016 64.7734 151.895 64.6211 151.809C64.4688 151.723 64.2754 151.68 64.041 151.68C63.834 151.68 63.6523 151.715 63.4961 151.785C63.3438 151.855 63.2266 151.955 63.1445 152.084C63.0625 152.209 63.0215 152.354 63.0215 152.518H61.4688C61.4688 152.256 61.5312 152.008 61.6562 151.773C61.7812 151.535 61.959 151.324 62.1895 151.141C62.4238 150.953 62.7031 150.807 63.0273 150.701C63.3555 150.596 63.7227 150.543 64.1289 150.543C64.6094 150.543 65.0371 150.625 65.4121 150.789C65.791 150.949 66.0879 151.191 66.3027 151.516C66.5215 151.84 66.6309 152.248 66.6309 152.74V155.506C66.6309 155.822 66.6504 156.094 66.6895 156.32C66.7324 156.543 66.7949 156.736 66.877 156.9V157H65.3008C65.2266 156.84 65.1699 156.637 65.1309 156.391C65.0918 156.141 65.0723 155.895 65.0723 155.652ZM65.2891 153.139L65.3008 154.059H64.3223C64.0801 154.059 63.8672 154.084 63.6836 154.135C63.5 154.182 63.3496 154.252 63.2324 154.346C63.1152 154.436 63.0273 154.545 62.9688 154.674C62.9102 154.799 62.8809 154.941 62.8809 155.102C62.8809 155.258 62.916 155.398 62.9863 155.523C63.0605 155.648 63.166 155.748 63.3027 155.822C63.4434 155.893 63.6074 155.928 63.7949 155.928C64.0684 155.928 64.3066 155.873 64.5098 155.764C64.7129 155.65 64.8711 155.514 64.9844 155.354C65.0977 155.193 65.1582 155.041 65.166 154.896L65.6113 155.564C65.5566 155.725 65.4746 155.895 65.3652 156.074C65.2559 156.254 65.1152 156.422 64.9434 156.578C64.7715 156.734 64.5645 156.863 64.3223 156.965C64.0801 157.066 63.7988 157.117 63.4785 157.117C63.0684 157.117 62.7012 157.035 62.377 156.871C62.0527 156.707 61.7969 156.482 61.6094 156.197C61.4219 155.912 61.3281 155.588 61.3281 155.225C61.3281 154.889 61.3906 154.592 61.5156 154.334C61.6406 154.076 61.8262 153.859 62.0723 153.684C62.3184 153.504 62.623 153.369 62.9863 153.279C63.3535 153.186 63.7734 153.139 64.2461 153.139H65.2891ZM68.2695 148H69.8223V155.6L69.6699 157H68.2695V148ZM73.9004 153.766V153.889C73.9004 154.361 73.8477 154.795 73.7422 155.189C73.6406 155.584 73.4863 155.926 73.2793 156.215C73.0723 156.5 72.8145 156.723 72.5059 156.883C72.2012 157.039 71.8438 157.117 71.4336 157.117C71.043 157.117 70.7031 157.041 70.4141 156.889C70.1289 156.736 69.8887 156.521 69.6934 156.244C69.498 155.963 69.3418 155.633 69.2246 155.254C69.1074 154.871 69.0195 154.453 68.9609 154V153.666C69.0195 153.209 69.1074 152.791 69.2246 152.412C69.3418 152.033 69.498 151.703 69.6934 151.422C69.8887 151.141 70.1289 150.924 70.4141 150.771C70.6992 150.619 71.0352 150.543 71.4219 150.543C71.8359 150.543 72.1973 150.623 72.5059 150.783C72.8184 150.939 73.0762 151.162 73.2793 151.451C73.4863 151.736 73.6406 152.076 73.7422 152.471C73.8477 152.861 73.9004 153.293 73.9004 153.766ZM72.3477 153.889V153.766C72.3477 153.496 72.3262 153.242 72.2832 153.004C72.2402 152.762 72.1699 152.549 72.0723 152.365C71.9746 152.182 71.8418 152.037 71.6738 151.932C71.5059 151.826 71.2949 151.773 71.041 151.773C70.7988 151.773 70.5918 151.814 70.4199 151.896C70.252 151.979 70.1113 152.092 69.998 152.236C69.8887 152.381 69.8027 152.551 69.7402 152.746C69.6816 152.941 69.6426 153.152 69.623 153.379V154.293C69.6504 154.594 69.7148 154.865 69.8164 155.107C69.918 155.346 70.0684 155.535 70.2676 155.676C70.4707 155.816 70.7324 155.887 71.0527 155.887C71.3027 155.887 71.5117 155.838 71.6797 155.74C71.8477 155.639 71.9805 155.498 72.0781 155.318C72.1758 155.135 72.2441 154.922 72.2832 154.68C72.3262 154.438 72.3477 154.174 72.3477 153.889ZM75 153.895V153.771C75 153.307 75.0664 152.879 75.1992 152.488C75.332 152.094 75.5254 151.752 75.7793 151.463C76.0332 151.174 76.3438 150.949 76.7109 150.789C77.0781 150.625 77.4961 150.543 77.9648 150.543C78.4414 150.543 78.8633 150.625 79.2305 150.789C79.6016 150.949 79.9141 151.174 80.168 151.463C80.4219 151.752 80.6152 152.094 80.748 152.488C80.8809 152.879 80.9473 153.307 80.9473 153.771V153.895C80.9473 154.355 80.8809 154.783 80.748 155.178C80.6152 155.568 80.4219 155.91 80.168 156.203C79.9141 156.492 79.6035 156.717 79.2363 156.877C78.8691 157.037 78.4492 157.117 77.9766 157.117C77.5078 157.117 77.0879 157.037 76.7168 156.877C76.3457 156.717 76.0332 156.492 75.7793 156.203C75.5254 155.91 75.332 155.568 75.1992 155.178C75.0664 154.783 75 154.355 75 153.895ZM76.5469 153.771V153.895C76.5469 154.172 76.5742 154.432 76.6289 154.674C76.6836 154.916 76.7676 155.129 76.8809 155.312C76.9941 155.496 77.1406 155.641 77.3203 155.746C77.5039 155.848 77.7227 155.898 77.9766 155.898C78.2266 155.898 78.4414 155.848 78.6211 155.746C78.8008 155.641 78.9473 155.496 79.0605 155.312C79.1777 155.129 79.2637 154.916 79.3184 154.674C79.373 154.432 79.4004 154.172 79.4004 153.895V153.771C79.4004 153.498 79.373 153.242 79.3184 153.004C79.2637 152.762 79.1777 152.549 79.0605 152.365C78.9473 152.178 78.7988 152.031 78.6152 151.926C78.4355 151.816 78.2188 151.762 77.9648 151.762C77.7148 151.762 77.5 151.816 77.3203 151.926C77.1406 152.031 76.9941 152.178 76.8809 152.365C76.7676 152.549 76.6836 152.762 76.6289 153.004C76.5742 153.242 76.5469 153.498 76.5469 153.771ZM83.8691 151.955V157H82.3223V150.66H83.7871L83.8691 151.955ZM85.7969 150.619L85.7734 152.061C85.6875 152.045 85.5898 152.033 85.4805 152.025C85.375 152.018 85.2754 152.014 85.1816 152.014C84.9434 152.014 84.7344 152.047 84.5547 152.113C84.375 152.176 84.2246 152.268 84.1035 152.389C83.9863 152.51 83.8965 152.658 83.834 152.834C83.7715 153.006 83.7363 153.201 83.7285 153.42L83.3945 153.379C83.3945 152.977 83.4355 152.604 83.5176 152.26C83.5996 151.916 83.7188 151.615 83.875 151.357C84.0312 151.1 84.2266 150.9 84.4609 150.76C84.6992 150.615 84.9727 150.543 85.2812 150.543C85.3672 150.543 85.459 150.551 85.5566 150.566C85.6582 150.578 85.7383 150.596 85.7969 150.619ZM90.1895 155.652V152.729C90.1895 152.514 90.1523 152.328 90.0781 152.172C90.0039 152.016 89.8906 151.895 89.7383 151.809C89.5859 151.723 89.3926 151.68 89.1582 151.68C88.9512 151.68 88.7695 151.715 88.6133 151.785C88.4609 151.855 88.3438 151.955 88.2617 152.084C88.1797 152.209 88.1387 152.354 88.1387 152.518H86.5859C86.5859 152.256 86.6484 152.008 86.7734 151.773C86.8984 151.535 87.0762 151.324 87.3066 151.141C87.541 150.953 87.8203 150.807 88.1445 150.701C88.4727 150.596 88.8398 150.543 89.2461 150.543C89.7266 150.543 90.1543 150.625 90.5293 150.789C90.9082 150.949 91.2051 151.191 91.4199 151.516C91.6387 151.84 91.748 152.248 91.748 152.74V155.506C91.748 155.822 91.7676 156.094 91.8066 156.32C91.8496 156.543 91.9121 156.736 91.9941 156.9V157H90.418C90.3438 156.84 90.2871 156.637 90.248 156.391C90.209 156.141 90.1895 155.895 90.1895 155.652ZM90.4062 153.139L90.418 154.059H89.4395C89.1973 154.059 88.9844 154.084 88.8008 154.135C88.6172 154.182 88.4668 154.252 88.3496 154.346C88.2324 154.436 88.1445 154.545 88.0859 154.674C88.0273 154.799 87.998 154.941 87.998 155.102C87.998 155.258 88.0332 155.398 88.1035 155.523C88.1777 155.648 88.2832 155.748 88.4199 155.822C88.5605 155.893 88.7246 155.928 88.9121 155.928C89.1855 155.928 89.4238 155.873 89.627 155.764C89.8301 155.65 89.9883 155.514 90.1016 155.354C90.2148 155.193 90.2754 155.041 90.2832 154.896L90.7285 155.564C90.6738 155.725 90.5918 155.895 90.4824 156.074C90.373 156.254 90.2324 156.422 90.0605 156.578C89.8887 156.734 89.6816 156.863 89.4395 156.965C89.1973 157.066 88.916 157.117 88.5957 157.117C88.1855 157.117 87.8184 157.035 87.4941 156.871C87.1699 156.707 86.9141 156.482 86.7266 156.197C86.5391 155.912 86.4453 155.588 86.4453 155.225C86.4453 154.889 86.5078 154.592 86.6328 154.334C86.7578 154.076 86.9434 153.859 87.1895 153.684C87.4355 153.504 87.7402 153.369 88.1035 153.279C88.4707 153.186 88.8906 153.139 89.3633 153.139H90.4062ZM96.3926 150.66V151.773H92.7598V150.66H96.3926ZM93.7324 149.102H95.2852V155.172C95.2852 155.359 95.3105 155.504 95.3613 155.605C95.4121 155.707 95.4883 155.775 95.5898 155.811C95.6914 155.846 95.8125 155.863 95.9531 155.863C96.0547 155.863 96.1484 155.857 96.2344 155.846C96.3203 155.834 96.3926 155.822 96.4512 155.811L96.457 156.971C96.3281 157.014 96.1816 157.049 96.0176 157.076C95.8574 157.104 95.6758 157.117 95.4727 157.117C95.125 157.117 94.8203 157.059 94.5586 156.941C94.2969 156.82 94.0938 156.627 93.9492 156.361C93.8047 156.092 93.7324 155.736 93.7324 155.295V149.102ZM97.2461 153.895V153.771C97.2461 153.307 97.3125 152.879 97.4453 152.488C97.5781 152.094 97.7715 151.752 98.0254 151.463C98.2793 151.174 98.5898 150.949 98.957 150.789C99.3242 150.625 99.7422 150.543 100.211 150.543C100.688 150.543 101.109 150.625 101.477 150.789C101.848 150.949 102.16 151.174 102.414 151.463C102.668 151.752 102.861 152.094 102.994 152.488C103.127 152.879 103.193 153.307 103.193 153.771V153.895C103.193 154.355 103.127 154.783 102.994 155.178C102.861 155.568 102.668 155.91 102.414 156.203C102.16 156.492 101.85 156.717 101.482 156.877C101.115 157.037 100.695 157.117 100.223 157.117C99.7539 157.117 99.334 157.037 98.9629 156.877C98.5918 156.717 98.2793 156.492 98.0254 156.203C97.7715 155.91 97.5781 155.568 97.4453 155.178C97.3125 154.783 97.2461 154.355 97.2461 153.895ZM98.793 153.771V153.895C98.793 154.172 98.8203 154.432 98.875 154.674C98.9297 154.916 99.0137 155.129 99.127 155.312C99.2402 155.496 99.3867 155.641 99.5664 155.746C99.75 155.848 99.9688 155.898 100.223 155.898C100.473 155.898 100.688 155.848 100.867 155.746C101.047 155.641 101.193 155.496 101.307 155.312C101.424 155.129 101.51 154.916 101.564 154.674C101.619 154.432 101.646 154.172 101.646 153.895V153.771C101.646 153.498 101.619 153.242 101.564 153.004C101.51 152.762 101.424 152.549 101.307 152.365C101.193 152.178 101.045 152.031 100.861 151.926C100.682 151.816 100.465 151.762 100.211 151.762C99.9609 151.762 99.7461 151.816 99.5664 151.926C99.3867 152.031 99.2402 152.178 99.127 152.365C99.0137 152.549 98.9297 152.762 98.875 153.004C98.8203 153.242 98.793 153.498 98.793 153.771ZM106.115 151.955V157H104.568V150.66H106.033L106.115 151.955ZM108.043 150.619L108.02 152.061C107.934 152.045 107.836 152.033 107.727 152.025C107.621 152.018 107.521 152.014 107.428 152.014C107.189 152.014 106.98 152.047 106.801 152.113C106.621 152.176 106.471 152.268 106.35 152.389C106.232 152.51 106.143 152.658 106.08 152.834C106.018 153.006 105.982 153.201 105.975 153.42L105.641 153.379C105.641 152.977 105.682 152.604 105.764 152.26C105.846 151.916 105.965 151.615 106.121 151.357C106.277 151.1 106.473 150.9 106.707 150.76C106.945 150.615 107.219 150.543 107.527 150.543C107.613 150.543 107.705 150.551 107.803 150.566C107.904 150.578 107.984 150.596 108.043 150.619ZM112.629 155.266C112.629 155.133 112.594 155.014 112.523 154.908C112.453 154.803 112.32 154.707 112.125 154.621C111.934 154.531 111.652 154.447 111.281 154.369C110.953 154.299 110.65 154.211 110.373 154.105C110.096 154 109.857 153.873 109.658 153.725C109.459 153.572 109.303 153.395 109.189 153.191C109.08 152.984 109.025 152.746 109.025 152.477C109.025 152.215 109.082 151.969 109.195 151.738C109.309 151.504 109.473 151.299 109.688 151.123C109.902 150.943 110.164 150.803 110.473 150.701C110.781 150.596 111.129 150.543 111.516 150.543C112.055 150.543 112.518 150.631 112.904 150.807C113.295 150.982 113.594 151.225 113.801 151.533C114.008 151.838 114.111 152.182 114.111 152.564H112.564C112.564 152.396 112.525 152.244 112.447 152.107C112.373 151.971 112.258 151.861 112.102 151.779C111.945 151.693 111.748 151.65 111.51 151.65C111.295 151.65 111.113 151.686 110.965 151.756C110.82 151.826 110.711 151.918 110.637 152.031C110.562 152.145 110.525 152.27 110.525 152.406C110.525 152.508 110.545 152.6 110.584 152.682C110.627 152.76 110.695 152.832 110.789 152.898C110.883 152.965 111.01 153.025 111.17 153.08C111.334 153.135 111.535 153.188 111.773 153.238C112.246 153.332 112.658 153.457 113.01 153.613C113.365 153.766 113.643 153.969 113.842 154.223C114.041 154.477 114.141 154.801 114.141 155.195C114.141 155.477 114.08 155.734 113.959 155.969C113.838 156.199 113.662 156.4 113.432 156.572C113.201 156.744 112.926 156.879 112.605 156.977C112.285 157.07 111.924 157.117 111.521 157.117C110.939 157.117 110.447 157.014 110.045 156.807C109.643 156.596 109.338 156.33 109.131 156.01C108.924 155.686 108.82 155.35 108.82 155.002H110.303C110.314 155.248 110.381 155.445 110.502 155.594C110.623 155.742 110.775 155.85 110.959 155.916C111.146 155.979 111.344 156.01 111.551 156.01C111.785 156.01 111.982 155.979 112.143 155.916C112.303 155.85 112.424 155.762 112.506 155.652C112.588 155.539 112.629 155.41 112.629 155.266Z" fill="#29627C"/>
</svg>
